<?xml version="1.0" standalone="no"?><!DOCTYPE svg PUBLIC "-//W3C//DTD SVG 1.1//EN" "http://www.w3.org/Graphics/SVG/1.1/DTD/svg11.dtd"><svg t="1520673277037" class="icon" style="" viewBox="0 0 1025 1024" version="1.1" xmlns="http://www.w3.org/2000/svg" p-id="2627" xmlns:xlink="http://www.w3.org/1999/xlink" width="200.1953125" height="200"><defs><style type="text/css"></style></defs><path d="M84.883165 690.682324c-0.108532-6.288704 2.1819-12.616315 6.896892-17.497176l386.129681-399.638824c25.107716-25.985186 66.674388-26.700882 92.661622-1.594189 0.125938 0.121842 0.250852 0.244709 0.374742 0.369623l397.182524 400.527557c9.555922 9.636809 9.491417 25.19577-0.146416 34.751692-9.636809 9.555922-25.196794 9.490393-34.752716-0.146416L536.272226 307.154335c-3.12797-2.94879-7.209177-4.529669-11.515638-4.455949-4.375062 0.075768-8.459341 1.850161-11.50028 4.99656L127.126626 707.334795c-9.431008 9.759675-24.986897 10.026909-34.747596 0.597949C87.499192 703.217752 84.991697 696.970003 84.883165 690.682324z" p-id="2628"></path><path d="M970.115987 251.532788" p-id="2629"></path></svg>