<?xml version="1.0" standalone="no"?><!DOCTYPE svg PUBLIC "-//W3C//DTD SVG 1.1//EN" "http://www.w3.org/Graphics/SVG/1.1/DTD/svg11.dtd"><svg t="1525959685554" class="icon" style="" viewBox="0 0 1024 1024" version="1.1" xmlns="http://www.w3.org/2000/svg" p-id="2592" xmlns:xlink="http://www.w3.org/1999/xlink" width="200" height="200"><defs><style type="text/css"></style></defs><path d="M92.019 264.974h-21.952v547.75c0 61.182 49.28 110.858 109.777 110.858h719.677v-447.53c0-12.262-9.828-22.204-21.952-22.204s-21.952 9.941-21.952 22.204v425.326l21.952-22.204h-697.726c-36.286 0-65.875-29.828-65.875-66.45v-525.547l-21.952 22.204h496.391c12.124 0 21.952-9.941 21.952-22.204s-9.828-22.204-21.952-22.204h-496.391z" p-id="2593"></path><path d="M446.097 583.634l-4.518 5.801-4.217 170.809 162.513-58.388 357.319-472.268-148.134-112.062-362.961 466.108zM799.908 166.058l113.215 85.647-4.285-31.276-339.875 449.212 10.085-7.429-126.292 45.375 29.291 21.478 3.238-131.137-4.701 13.184 349.714-449.096-30.391 4.043z" p-id="2594"></path><path d="M845.297 334.905l25.714-35.993-98.584-72.061-25.714 35.993 98.584 72.061z" p-id="2595"></path></svg>